<?xml version="1.0" encoding="UTF-8"?>
<svg width="159px" height="69px" viewBox="0 0 159 69" version="1.1" xmlns="http://www.w3.org/2000/svg" xmlns:xlink="http://www.w3.org/1999/xlink">
    <!-- Generator: Sketch 45.2 (43514) - http://www.bohemiancoding.com/sketch -->
    <title>logo-tagline-white</title>
    <desc>Created with Sketch.</desc>
    <defs></defs>
    <g id="Page-1" stroke="none" stroke-width="1" fill="none" fill-rule="evenodd">
        <g id="01" transform="translate(-62.000000, -60.000000)" fill="#FFFFFF">
            <g id="logo-tagline-white" transform="translate(62.000000, 60.000000)">
                <path d="M53.311617,43.5664172 C53.0032288,44.2211898 52.4827685,44.78053 51.7670251,45.2272069 C51.0724889,45.6557693 50.1800187,45.9721103 49.11038,46.1691606 C48.002745,46.3763727 46.4077859,46.498756 44.7386016,46.498756 C43.4758889,46.498756 41.6039106,46.4302744 39.8472466,46.1046553 L39.4332641,46.028221 L39.4332641,36.4284231 L47.6201315,36.4284231 C48.7414629,36.4284231 49.7002056,36.5521318 50.4680834,36.7995493 C51.2562847,37.0566867 51.9008956,37.408373 52.3886615,37.8479808 C52.88924,38.2999595 53.2475536,38.8341162 53.4596257,39.4389635 C53.661536,40.0181855 53.7640375,40.6499837 53.7640375,41.3131509 C53.7640375,42.1724848 53.6120525,42.9306426 53.311617,43.5664172 L53.311617,43.5664172 Z M39.4284041,23.9135172 L39.8719883,23.8582901 C40.0354606,23.8379665 40.2126291,23.8145502 40.4004013,23.7889248 C41.5977252,23.6311962 43.2377496,23.4133804 45.3226836,23.4133804 C46.0092671,23.4133804 46.7042451,23.438564 47.3903867,23.4853966 C49.3591229,23.6276616 50.5643994,24.3067342 50.9916364,24.5939152 C51.6349218,25.0291049 52.1023641,25.5654706 52.3811506,26.1879907 C52.6484498,26.7923962 52.7840876,27.4449598 52.7840876,28.124916 C52.7840876,28.7651087 52.6811443,29.3761415 52.4796758,29.9385744 C52.2649527,30.5306091 51.9092901,31.044884 51.4219661,31.4654937 C50.9523147,31.8719653 50.3381892,32.2002352 49.5937277,32.4397 C48.8704734,32.6765139 47.9753523,32.794479 46.9366408,32.794479 L39.4284041,32.794479 L39.4284041,23.9135172 Z M56.6857728,37.2325299 C55.8617842,36.1103149 54.7682874,35.3079754 53.4326748,34.848044 L52.2671618,34.4504088 L53.3778895,33.9136012 C53.7640375,33.7289218 54.1722764,33.462948 54.5937697,33.1218653 C55.0051012,32.7909444 55.3775529,32.3796129 55.6996374,31.8984743 C56.0270238,31.4071739 56.3084611,30.8199992 56.5298114,30.1555066 C56.7516035,29.4971994 56.863825,28.7187179 56.863825,27.8421532 C56.863825,26.7985816 56.6897491,25.78903 56.3438065,24.83824 C56.0093511,23.9241208 55.3983183,23.0974814 54.5266135,22.3857143 C53.5475472,21.5864675 52.2941127,20.9931074 50.804306,20.6219812 C48.7706228,20.1196354 46.6649234,19.8708924 44.3679172,19.8708924 C42.3448376,19.8708924 40.1909801,20.0710355 37.9673156,20.4624853 C37.0518709,20.6255157 36.4783926,20.8658641 36.0485047,21.2705684 C35.7043294,21.5926529 35.5320208,22.1546441 35.5320208,22.93666 L35.5320208,49.4606966 C38.9715654,49.7960356 41.7545702,49.8654009 43.5001888,49.8654009 C46.7073378,49.8654009 49.4059555,49.638307 51.5209331,49.1867701 C53.1097067,48.8465711 54.4501792,48.2452583 55.5078889,47.4005043 C56.4268681,46.6657628 57.0635262,45.7931744 57.4015162,44.8079227 C57.7483425,43.786442 57.923302,42.6770397 57.923302,41.5093176 C57.923302,39.7910916 57.5062268,38.349443 56.6857728,37.2325299 L56.6857728,37.2325299 Z" id="Fill-1"></path>
                <path d="M82.4377785,49.6371141 L86.4318034,49.6371141 L86.4318034,20.2006204 C86.290422,20.1546714 86.1083934,20.0976771 85.8892522,20.0309627 C85.5039879,19.9187412 85.0732164,19.8595377 84.6053323,19.8595377 C83.8834035,19.8595377 83.3298069,20.01329 82.9582388,20.3177019 C82.6074362,20.6000229 82.4377785,21.0497925 82.4377785,21.6851252 L82.4377785,49.6371141" id="Fill-3"></path>
                <path d="M75.7773002,36.2893833 C75.5656699,36.7731728 75.1402002,37.1986425 74.513262,37.556956 C73.9269709,37.8945042 73.1378859,38.1618034 72.1040344,38.3716664 C71.1055281,38.5718095 69.7880301,38.6765201 68.1899783,38.6765201 L66.3838308,38.6765201 C65.763078,38.6765201 65.1197926,38.662382 64.4725308,38.6345475 L64.0324812,38.6137821 L64.0479447,38.1750579 C64.0806392,37.3095386 64.2560405,36.4497629 64.5719396,35.6178216 C64.8900478,34.7779277 65.3460028,34.0277225 65.9238994,33.3800189 C66.5035632,32.733199 67.2325611,32.2039023 68.0892441,31.8111271 C68.9503452,31.4170264 69.9537114,31.217767 71.0701828,31.217767 C72.4340716,31.217767 73.6040028,31.5115752 74.5463983,32.0899135 C75.5577172,32.7111081 76.0702248,33.6495273 76.0702248,34.8839637 C76.0702248,35.3686369 75.9712578,35.8418228 75.7773002,36.2893833 M79.3957807,32.4429253 C79.0237709,31.6595839 78.4622216,30.9606295 77.7354327,30.3769894 C76.9909712,29.7761184 76.0618303,29.2861434 74.9718679,28.9242954 C73.8832311,28.5602382 72.6001947,28.3764424 71.1563371,28.3764424 C69.5291254,28.3764424 68.0119261,28.6441834 66.65113,29.1730383 C65.2969612,29.6970331 64.1022882,30.4512146 63.1006893,31.4095155 C62.1021831,32.3656073 61.3135399,33.5289112 60.7528742,34.8649656 C60.1917667,36.1992527 59.9059112,37.7031974 59.9059112,39.3339437 C59.9059112,41.0459842 60.1966267,42.5737871 60.7701051,43.8824488 C61.3426998,45.1849251 62.1392957,46.3040473 63.1347092,47.2075629 C64.1301227,48.1093112 65.3075648,48.7994292 66.6347828,49.258477 C67.9756971,49.7206175 69.4376693,49.9565477 70.9853539,49.9565477 C72.0947562,49.9565477 73.1321423,49.8721607 74.0670269,49.7082466 C75.4238466,49.4670146 76.7126266,49.0985393 77.9050904,48.6059134 L76.5584325,45.8723922 C75.876709,46.1065551 74.5919054,46.5015395 74.0718869,46.5960883 C73.4193233,46.7122861 72.6978363,46.7732569 71.9295167,46.7732569 C69.6325105,46.7732569 67.8285721,46.2938855 66.5685102,45.3470719 C65.2885666,44.3896546 64.5158289,43.1163383 64.2688532,41.5637936 L64.1822571,41.0190334 L64.7345282,41.0517278 C66.1863386,41.1378821 67.2767428,41.1378821 67.8020631,41.1378821 L67.9315154,41.1378821 C70.3513467,41.1378821 72.3735427,40.9775026 73.9481782,40.6593944 C75.4918864,40.3474717 76.7307411,39.9096311 77.6316058,39.3586854 C78.494916,38.831156 79.1024143,38.1971487 79.4381951,37.4738945 C79.7823705,36.7281075 79.9560045,35.8864463 79.9560045,34.9683507 C79.9560045,34.0802987 79.7677905,33.2311266 79.3957807,32.4429253" id="Fill-5"></path>
                <path d="M147.462315,46.3700547 C143.417482,46.3700547 140.126387,43.0794024 140.126387,39.0345685 C140.126387,34.9870838 143.417482,31.6942223 147.462315,31.6942223 C151.5098,31.6942223 154.803545,34.9870838 154.803545,39.0345685 C154.803545,43.0794024 151.5098,46.3700547 147.462315,46.3700547 M157.92454,34.861166 C157.370943,33.372243 156.591136,32.1298538 155.602792,31.1684602 C154.61268,30.2057411 153.432587,29.4811614 152.100509,29.0132773 C150.759595,28.5427423 149.274207,28.3050448 147.688526,28.3050448 C146.021992,28.3050448 144.470773,28.5847149 143.073748,29.1361024 C141.67849,29.6914662 140.46747,30.4624368 139.474707,31.424714 C138.481945,32.3909676 137.691092,33.5498534 137.127334,34.8757459 C136.560925,36.1989876 136.274186,37.6697961 136.274186,39.245757 C136.274186,40.8234852 136.540159,42.2810392 137.062829,43.5808646 C137.587266,44.8784808 138.326867,46.000254 139.261752,46.919675 C140.199287,47.8452814 141.329897,48.5711866 142.623095,49.077067 C143.917618,49.5895746 145.363685,49.8493629 146.916671,49.8493629 C148.596901,49.8493629 150.051362,49.5166748 151.240292,48.8588094 C152.281654,48.2853311 153.123757,47.6694383 153.73965,47.0318965 L154.557011,46.1889098 L154.557011,47.4679698 C154.557011,49.0757415 154.310036,50.4184231 153.820061,51.4575765 C153.32876,52.5002644 152.683708,53.3246948 151.904784,53.9087768 C151.126745,54.4888824 150.234717,54.8856339 149.258743,55.122006 C145.57885,56.0056398 141.53004,54.5949184 141.41826,54.5608985 L139.894433,57.7393294 C144.306859,59.243716 148.699845,59.0691983 151.638811,58.0627394 C153.070739,57.5723226 154.346265,56.8773446 155.391604,55.8863493 C156.434291,54.9006557 157.264465,53.6070158 157.860476,52.0425421 C158.457813,50.4705575 158.760457,48.5579321 158.760457,46.355033 L158.760457,40.1890361 C158.760457,38.152702 158.476811,36.3611344 157.92454,34.861166" id="Fill-7"></path>
                <path d="M105.830791,35.3647931 C105.767611,35.4213456 105.202969,35.9024842 104.472204,35.9024842 C104.116983,35.9024842 103.788713,35.7911464 103.497114,35.5720052 C102.575484,34.8801199 102.872385,33.7331632 103.158683,33.2228647 L103.470163,32.6679426 C103.470163,32.6679426 104.078104,32.9484964 105.058937,33.8153411 C106.042422,34.6808605 106.238588,35.0047123 106.238588,35.0047123 L105.830791,35.3647931 Z M124.636286,28.4600783 C122.043705,28.4600783 119.70561,29.2633015 118.047913,30.7230646 L117.322891,31.3606064 L117.310962,30.7522245 C117.310962,29.9432577 116.725113,28.8484354 115.465051,28.8484354 C114.884503,28.8484354 114.22708,29.1033638 113.515313,29.6065932 C112.485438,30.3338239 109.223945,32.761166 109.196994,32.7841405 L108.857237,33.033767 L108.589938,32.7121243 C106.403386,30.0886155 103.046903,28.4600783 99.8300339,28.4600783 C93.4095505,28.4600783 88.7497075,33.0156525 88.7497075,39.2907782 C88.7497075,45.5672292 93.4095505,50.1232453 99.8300339,50.1232453 C107.280392,50.1232453 110.427013,44.2391276 110.855575,39.2032984 C110.896222,38.7159744 110.871922,38.0059746 110.838344,37.6299884 C109.387417,38.5953583 108.263435,39.2315747 107.790249,39.4785503 C107.34048,42.9909948 104.686927,46.9337689 99.8300339,46.9337689 C95.517459,46.9337689 92.2665701,43.6484184 92.2665701,39.2907782 C92.2665701,34.935347 95.46665,31.0411727 101.418808,31.7940288 C101.418808,31.7940288 100.411465,33.4530513 100.551521,35.0868902 C100.733549,37.2120296 102.572833,38.1544251 104.192534,38.3223155 C106.281886,38.5396894 108.971668,36.4300136 110.856017,34.9759942 C111.094598,34.7908729 111.324785,34.6141461 111.548344,34.4453721 C112.037877,34.0755713 112.482345,33.7402323 112.881306,33.4605622 L113.579376,32.9714708 L113.579376,49.6659647 L117.310962,49.6659647 L117.310962,38.6545618 C117.310962,34.6106116 120.067899,31.7874015 124.015975,31.7874015 C127.97598,31.7874015 130.246036,34.0742459 130.246036,38.0620853 L130.246036,49.6659647 L133.97718,49.6659647 L133.97718,38.0179036 C133.97718,32.2999091 130.223945,28.4600783 124.636286,28.4600783 L124.636286,28.4600783 Z" id="Fill-9"></path>
                <path d="M24.7537204,26.4529483 C24.4515176,27.0935828 23.9434282,27.6396685 23.2453575,28.0748582 C22.5667267,28.4914915 21.6950219,28.8025306 20.6492413,28.994721 C19.5685571,29.1988404 18.0124779,29.3154801 16.3830572,29.3154801 C15.1490625,29.3154801 13.3190569,29.2487657 11.6043654,28.9297739 L11.2009866,28.8564323 L11.2009866,19.4801937 L19.1952218,19.4801937 C20.2918114,19.4801937 21.2262542,19.6030188 21.9755757,19.8473436 C22.7456625,20.0956447 23.3756935,20.442471 23.8506466,20.8697079 C24.3392962,21.3075485 24.6923079,21.8319852 24.8990782,22.4213689 C25.0956867,22.9873364 25.1950955,23.6041128 25.1950955,24.2527 C25.1950955,25.0921522 25.0479705,25.8313119 24.7537204,26.4529483 L24.7537204,26.4529483 Z M11.1970102,7.26307243 L11.6299908,7.20651986 C11.7890449,7.18752174 11.9622371,7.16498907 12.1469166,7.14024733 C13.3146387,6.98428596 14.9153414,6.77353929 16.9512337,6.77353929 C17.6219118,6.77353929 18.3014262,6.79695559 18.970337,6.84511363 C20.893566,6.98207687 22.0701245,7.64789496 22.486316,7.92535598 C23.1163469,8.34994204 23.5718602,8.87437871 23.844903,9.48320242 C24.105575,10.0734698 24.235911,10.7088025 24.235911,11.3741788 C24.235911,11.9993497 24.1382695,12.5944771 23.9407773,13.1467483 C23.7304724,13.7233193 23.3832044,14.2238979 22.9078094,14.6365549 C22.4505288,15.0310974 21.8487742,15.3531819 21.1219854,15.5864613 C20.415962,15.8157642 19.5424899,15.9332875 18.5276365,15.9332875 L11.1970102,15.9332875 L11.1970102,7.26307243 Z M17.001159,0.091058466 C7.84185259,0.091058466 0.41402663,7.51667534 0.41402663,16.6737727 C0.41402663,24.27214 4.40230791,28.6655674 7.60768962,32.7435375 C8.08175917,33.3435249 8.58057047,33.8701706 9.02062011,34.4021182 C15.6076685,42.452906 16.5496221,49.6991452 16.5633185,49.772045 C16.6114765,50.039786 16.7267907,50.148473 16.8142705,50.148473 L16.8341522,50.148473 C16.921632,50.148473 17.0073445,50.0618769 17.0775934,49.7808813 C17.0930569,49.7106324 18.0213143,42.452906 24.6105717,34.4021182 C25.0479705,33.8701706 25.5335273,33.3373394 26.0173168,32.7475138 C28.9403775,29.1966313 33.5860823,24.3503416 33.5860823,16.6737727 C33.5860823,7.51667534 26.1609073,0.091058466 17.001159,0.091058466 L17.001159,0.091058466 Z" id="Fill-11"></path>
                <path d="M40.7746644,60.9841212 C40.7746644,60.7291928 40.7295991,60.4932626 40.6394685,60.2754468 C40.5493378,60.0576311 40.3960273,59.8663244 40.1782116,59.7015267 C39.9608377,59.536729 39.6701222,59.4072766 39.3065068,59.3131696 C38.9424497,59.2195044 38.4864946,59.17223 37.9390835,59.17223 C37.4738503,59.17223 37.1067004,59.1837172 36.8363085,59.2066917 C36.5663583,59.2287826 36.3975843,59.2473389 36.3299863,59.2628025 L36.3299863,62.6718618 C36.352519,62.6798145 36.4161406,62.6926272 36.521293,62.7111835 C36.6264454,62.7301816 36.7611996,62.7487379 36.9264391,62.7672942 C37.0912368,62.7862924 37.2754745,62.8030814 37.4778266,62.8181032 C37.6801788,62.8335668 37.8940182,62.8406358 38.1193448,62.8406358 C38.6141797,62.8406358 39.0303713,62.7973378 39.3679194,62.7111835 C39.7054675,62.6250292 39.979394,62.4995532 40.1896988,62.3343137 C40.3995619,62.169516 40.5493378,61.9742329 40.6394685,61.7493481 C40.7295991,61.5244633 40.7746644,61.2695349 40.7746644,60.9841212 M41.5845148,60.9841212 C41.5845148,61.3221111 41.5266368,61.6424284 41.410439,61.9463984 C41.2942411,62.2499266 41.0989581,62.5185513 40.8254734,62.750947 C40.5515469,62.9829009 40.1914661,63.1666967 39.745231,63.3018927 C39.2985541,63.4370887 38.7453994,63.5046867 38.0853249,63.5046867 C37.9055054,63.5046867 37.7177332,63.496734 37.522892,63.482154 C37.3276089,63.4671322 37.1460221,63.4503432 36.9772481,63.4313451 C36.8080322,63.4127887 36.6639999,63.3959997 36.5438257,63.3809779 C36.4236515,63.366398 36.352519,63.3544689 36.3299863,63.346958 L36.3299863,66.3402676 L35.5647594,66.3402676 L35.5647594,59.0710539 C35.5647594,58.8086147 35.7149771,58.6588388 36.0149708,58.6212843 C36.0975906,58.6062625 36.31143,58.5837299 36.656489,58.5536863 C37.0011062,58.5240846 37.4477831,58.508621 37.9951942,58.508621 C38.5205145,58.508621 39.0025368,58.5558954 39.441261,58.6491188 C39.8799852,58.7432258 40.2586223,58.8894672 40.5776141,59.0882848 C40.8966059,59.2866606 41.1440234,59.5420308 41.3203083,59.8530699 C41.4965933,60.1649926 41.5845148,60.5414206 41.5845148,60.9841212" id="Fill-13"></path>
                <path d="M47.7509535,63.5607974 C47.7509535,63.2387129 47.6983773,62.9365101 47.5936667,62.6550727 C47.4885143,62.3736354 47.3382965,62.1279852 47.1434553,61.9176803 C46.9481722,61.7082591 46.7157765,61.5452287 46.4458263,61.428589 C46.1758762,61.3123911 45.8754407,61.2540713 45.5454035,61.2540713 C45.2153662,61.2540713 44.9153726,61.3123911 44.6454224,61.428589 C44.3754723,61.5452287 44.1426348,61.7082591 43.9477935,61.9176803 C43.7525104,62.1279852 43.6027345,62.3736354 43.4975821,62.6550727 C43.3924297,62.9365101 43.3402953,63.2387129 43.3402953,63.5607974 C43.3402953,63.8758129 43.3946387,64.1740393 43.5033257,64.4550348 C43.6120127,64.7364722 43.7617886,64.980797 43.9535371,65.1871255 C44.144402,65.3930122 44.3754723,65.5564844 44.6454224,65.6762168 C44.9153726,65.796391 45.2153662,65.8560363 45.5454035,65.8560363 C45.8754407,65.8560363 46.1758762,65.796391 46.4458263,65.6762168 C46.7157765,65.5564844 46.9481722,65.3930122 47.1434553,65.1871255 C47.3382965,64.980797 47.4885143,64.7364722 47.5936667,64.4550348 C47.6983773,64.1740393 47.7509535,63.8758129 47.7509535,63.5607974 M48.5497585,63.5607974 C48.5497585,63.9659435 48.4746496,64.3467897 48.3248737,64.7028941 C48.1746559,65.0594404 47.9665602,65.3709213 47.7001446,65.6368951 C47.433729,65.9033107 47.1169462,66.1131737 46.7493546,66.266926 C46.3817629,66.4206783 45.9805931,66.4975544 45.5454035,66.4975544 C45.1102138,66.4975544 44.7090441,66.4206783 44.3414524,66.266926 C43.9738607,66.1131737 43.657078,65.9033107 43.3906624,65.6368951 C43.1242468,65.3709213 42.916151,65.0594404 42.7663751,64.7028941 C42.6161573,64.3467897 42.5410485,63.9659435 42.5410485,63.5607974 C42.5410485,63.1481404 42.6161573,62.7637597 42.7663751,62.4076553 C42.916151,62.051109 43.1242468,61.7400699 43.3906624,61.4732125 C43.657078,61.2076805 43.9738607,60.9991429 44.3414524,60.8489252 C44.7090441,60.6987074 45.1102138,60.6240404 45.5454035,60.6240404 C45.9805931,60.6240404 46.3817629,60.6987074 46.7493546,60.8489252 C47.1169462,60.9991429 47.433729,61.2076805 47.7001446,61.4732125 C47.9665602,61.7400699 48.1746559,62.051109 48.3248737,62.4076553 C48.4746496,62.7637597 48.5497585,63.1481404 48.5497585,63.5607974" id="Fill-15"></path>
                <path d="M51.4190059,65.676261 C51.5387383,65.3387129 51.6571452,65.0011647 51.7733431,64.6636166 C51.8899827,64.3260685 52.0079478,63.9792422 52.128122,63.6231378 C52.2478544,63.2665915 52.3715632,62.891489 52.4992483,62.4978301 C52.6269333,62.1037294 52.758153,61.6782597 52.8929071,61.2205374 C52.9454833,61.047787 53.0170577,60.932031 53.1067465,60.871502 C53.1968772,60.8114149 53.3166095,60.7818132 53.4668273,60.7818132 C53.5719797,60.7818132 53.6599013,60.7946259 53.7314756,60.8211349 C53.8026081,60.8472021 53.8494407,60.8679675 53.8719734,60.8829893 C53.9696149,61.2205374 54.0836037,61.5916636 54.2152651,61.9968097 C54.3464848,62.4019558 54.4852153,62.8163801 54.6314567,63.2400825 C54.7776981,63.6637849 54.9239395,64.0857201 55.0701809,64.5063298 C55.2164223,64.9264977 55.3573619,65.3161802 55.492116,65.676261 C55.7775298,64.918545 56.0607344,64.1537599 56.34173,63.3810221 C56.6231673,62.6087261 56.8648412,61.8580792 57.0676351,61.1304068 C57.1051896,61.0102326 57.1537894,60.922311 57.2138765,60.8657584 C57.2739636,60.8096477 57.3676288,60.7818132 57.4953139,60.7818132 C57.6000245,60.7818132 57.6866206,60.8003695 57.7537768,60.837924 C57.8213748,60.8754784 57.8624638,60.9015456 57.8779274,60.9170092 C57.8103294,61.1940284 57.7034097,61.5483656 57.5571683,61.9800207 C57.4109269,62.411234 57.2456874,62.8764672 57.0618915,63.3752785 C56.8780957,63.8740898 56.6850217,64.380412 56.4822277,64.8938032 C56.2798756,65.4085199 56.0885689,65.8896586 55.9087494,66.3403118 L55.0087683,66.3403118 C54.9257067,66.1454705 54.8209961,65.869335 54.693311,65.5132305 C54.565626,65.1566843 54.4268954,64.7647927 54.2771195,64.3375557 C54.1269018,63.909877 53.9749167,63.4654091 53.8211645,63.0041523 C53.6674122,62.5424536 53.5269144,62.1059385 53.3996711,61.6928397 C53.271986,62.1134494 53.1350228,62.5521736 52.9887814,63.0094541 C52.84254,63.4671764 52.6980659,63.9081097 52.5558008,64.3318121 C52.413094,64.7555145 52.277898,65.1434298 52.1506547,65.4964415 C52.0229696,65.8490114 51.9213517,66.130007 51.8466847,66.3403118 L50.9462618,66.3403118 C50.7664423,65.8750786 50.5786701,65.3837782 50.3838289,64.8659688 C50.1885458,64.3481593 50.0087263,63.868788 49.8439286,63.4256456 C49.6786891,62.9829451 49.5399586,62.6047498 49.4272952,62.2892925 C49.3150738,61.9742771 49.2474758,61.7869467 49.2249431,61.7268596 C49.1948996,61.6442398 49.1630887,61.5505746 49.1295106,61.4454222 C49.0954907,61.3407116 49.0787017,61.250581 49.0787017,61.1754721 C49.0787017,61.0703197 49.1122798,60.9784217 49.1798778,60.8993365 C49.2474758,60.8211349 49.3486518,60.7818132 49.4838478,60.7818132 C49.5660258,60.7818132 49.6336237,60.7888823 49.6862,60.8043459 C49.7387762,60.8193676 49.7723543,60.8304131 49.787376,60.837924 C49.8699958,61.1679612 49.9769155,61.5377619 50.1081351,61.9464426 C50.2393547,62.3551232 50.3820616,62.7752911 50.5358139,63.2060626 C50.6895662,63.6377177 50.8433185,64.066722 50.9970707,64.4944007 C51.150823,64.9225213 51.2913208,65.3161802 51.4190059,65.676261" id="Fill-17"></path>
                <path d="M59.1604335,63.4594004 C59.3627856,63.474864 59.559836,63.4841422 59.7511427,63.4872349 C59.9424494,63.4912113 60.1430343,63.4929785 60.3528973,63.4929785 C60.8631959,63.4929785 61.282922,63.4616095 61.613401,63.3975461 C61.9434382,63.3343662 62.2041102,63.2495374 62.3954169,63.144385 C62.5867237,63.0396744 62.7197106,62.9159656 62.7948194,62.7728169 C62.8694865,62.6305519 62.9074827,62.4803342 62.9074827,62.3234891 C62.9074827,62.1131843 62.8641847,61.9368993 62.7780304,61.7941925 C62.6918761,61.6519274 62.5752364,61.5374969 62.428995,61.4509007 C62.2827536,61.3651883 62.1179559,61.3028921 61.9341601,61.2653376 C61.7503642,61.2277832 61.5608248,61.2092269 61.3659835,61.2092269 C61.0134136,61.2092269 60.7019327,61.2710813 60.4319826,61.39479 C60.1620324,61.5180569 59.9349385,61.6855055 59.7511427,61.8958104 C59.5673469,62.1061152 59.4250818,62.34558 59.3234639,62.6159719 C59.2222879,62.8854803 59.1679444,63.1669176 59.1604335,63.4594004 M59.1829662,64.0448078 C59.2655859,64.6227044 59.5054925,65.0684976 59.9031277,65.3835131 C60.300763,65.6985286 60.8256414,65.8562572 61.478205,65.8562572 C61.8608185,65.8562572 62.1851121,65.8023555 62.4515277,65.6932268 C62.7179433,65.5845398 62.9225045,65.4891073 63.0647696,65.4060458 L63.3912723,65.9463878 C63.3311852,65.9839423 63.2410545,66.0343094 63.1213221,66.0983729 C63.0011479,66.1619945 62.8549065,66.2238489 62.6821561,66.283936 C62.5098475,66.3435812 62.3145644,66.3943902 62.0971905,66.4354792 C61.8798166,66.47701 61.6394682,66.4977754 61.377029,66.4977754 C60.964372,66.4977754 60.5764567,66.4354792 60.2123996,66.3122122 C59.8483424,66.1880617 59.5297924,66.0064749 59.2563078,65.7665684 C58.9819395,65.52622 58.7663328,65.2302026 58.609046,64.8771909 C58.4513174,64.524621 58.3726739,64.1159404 58.3726739,63.651149 C58.3726739,63.2004957 58.4477828,62.7900478 58.5980006,62.4189216 C58.7477765,62.0473536 58.9580814,61.7288036 59.2280315,61.462388 C59.4979816,61.1959724 59.8187407,60.9896439 60.1898669,60.8434025 C60.5614349,60.6971611 60.9679065,60.6238195 61.4110489,60.6238195 C61.7857096,60.6238195 62.1139796,60.6675594 62.3954169,60.7532718 C62.6764125,60.8394261 62.9110173,60.9618094 63.0987895,61.1190962 C63.2861198,61.2768249 63.4266176,61.462388 63.5207246,61.6762274 C63.6143898,61.8900668 63.6612224,62.1206952 63.6612224,62.3681127 C63.6612224,62.6159719 63.6104135,62.842624 63.5092374,63.0489525 C63.4080613,63.255281 63.2353109,63.4351005 62.9918698,63.5888528 C62.7479868,63.7430469 62.4214841,63.8627793 62.0128035,63.9489336 C61.6041228,64.0355297 61.0885225,64.0783859 60.4655607,64.0783859 C60.2256541,64.0783859 60.0060711,64.0766187 59.8072535,64.0730841 C59.6084358,64.0691078 59.4003401,64.0598296 59.1829662,64.0448078" id="Fill-19"></path>
                <path d="M68.4094288,61.1864733 C68.4094288,61.2615822 68.3886634,61.3291802 68.3475744,61.3892673 C68.3060436,61.4493544 68.2667219,61.4979542 68.2296093,61.5355087 C68.1019242,61.4754216 67.940661,61.4193108 67.745378,61.3667346 C67.5505367,61.3141584 67.3216755,61.2876494 67.0592363,61.2876494 C66.7512899,61.2876494 66.4945943,61.3256456 66.2882658,61.4003127 C66.0819373,61.4754216 65.9149305,61.5858758 65.7876872,61.7321172 C65.6600021,61.8783586 65.5698715,62.060829 65.5177371,62.2782029 C65.4651609,62.4955768 65.4390937,62.7429943 65.4390937,63.0204553 L65.4390937,66.3402676 L64.6963994,66.3402676 L64.6963994,62.6718618 C64.6963994,62.0192982 64.8912407,61.5147433 65.281365,61.1586389 C65.6710475,60.8020926 66.2414332,60.6240404 66.9916383,60.6240404 C67.3967844,60.6240404 67.7343325,60.6691057 68.0042827,60.7587945 C68.2742328,60.8489252 68.4094288,60.9920739 68.4094288,61.1864733" id="Fill-21"></path>
                <path d="M69.5684471,63.4594004 C69.7707992,63.474864 69.9678496,63.4841422 70.1591563,63.4872349 C70.350463,63.4912113 70.5510479,63.4929785 70.7609109,63.4929785 C71.2712095,63.4929785 71.6909355,63.4616095 72.0214146,63.3975461 C72.3514518,63.3343662 72.6121238,63.2495374 72.8034305,63.144385 C72.9947373,63.0396744 73.1277241,62.9159656 73.202833,62.7728169 C73.2779419,62.6305519 73.3154963,62.4803342 73.3154963,62.3234891 C73.3154963,62.1131843 73.2721983,61.9368993 73.186044,61.7941925 C73.0994479,61.6519274 72.98325,61.5374969 72.8370086,61.4509007 C72.6907672,61.3651883 72.5259695,61.3028921 72.3421737,61.2653376 C72.1583778,61.2277832 71.9688384,61.2092269 71.7735553,61.2092269 C71.4209854,61.2092269 71.1099463,61.2710813 70.8399962,61.39479 C70.5696042,61.5180569 70.3429521,61.6855055 70.1591563,61.8958104 C69.9753605,62.1061152 69.8326536,62.34558 69.7314775,62.6159719 C69.6303015,62.8854803 69.575958,63.1669176 69.5684471,63.4594004 M69.5909797,64.0448078 C69.6735995,64.6227044 69.9135061,65.0684976 70.3111413,65.3835131 C70.7083347,65.6985286 71.233655,65.8562572 71.8862186,65.8562572 C72.2688321,65.8562572 72.5931257,65.8023555 72.8595413,65.6932268 C73.1259569,65.5845398 73.3300763,65.4891073 73.4727832,65.4060458 L73.7992859,65.9463878 C73.7391988,65.9839423 73.6490681,66.0343094 73.5293357,66.0983729 C73.4091615,66.1619945 73.2629201,66.2238489 73.0901697,66.283936 C72.9174193,66.3435812 72.722578,66.3943902 72.5052041,66.4354792 C72.2878302,66.47701 72.0474818,66.4977754 71.7850425,66.4977754 C71.3723855,66.4977754 70.9844703,66.4354792 70.6204132,66.3122122 C70.256356,66.1880617 69.937806,66.0064749 69.6638795,65.7665684 C69.3899531,65.52622 69.1743464,65.2302026 69.0170596,64.8771909 C68.8593309,64.524621 68.7806875,64.1159404 68.7806875,63.651149 C68.7806875,63.2004957 68.8557964,62.7900478 69.0055723,62.4189216 C69.1557901,62.0473536 69.3656531,61.7288036 69.6360451,61.462388 C69.9059952,61.1959724 70.2267543,60.9896439 70.5978805,60.8434025 C70.9694485,60.6971611 71.3759201,60.6238195 71.8186206,60.6238195 C72.1937232,60.6238195 72.5219932,60.6675594 72.8034305,60.7532718 C73.0844261,60.8394261 73.3190309,60.9618094 73.5068031,61.1190962 C73.6941334,61.2768249 73.8346312,61.462388 73.9287382,61.6762274 C74.0224034,61.8900668 74.069236,62.1206952 74.069236,62.3681127 C74.069236,62.6159719 74.018427,62.842624 73.917251,63.0489525 C73.8160749,63.255281 73.6433245,63.4351005 73.3998834,63.5888528 C73.1560004,63.7430469 72.8294977,63.8627793 72.4208171,63.9489336 C72.0116946,64.0355297 71.4960943,64.0783859 70.8735742,64.0783859 C70.6332258,64.0783859 70.4140847,64.0766187 70.215267,64.0730841 C70.0164494,64.0691078 69.8083537,64.0598296 69.5909797,64.0448078" id="Fill-23"></path>
                <path d="M75.6780681,63.5607974 C75.6780681,63.8758129 75.728877,64.1740393 75.8300531,64.4550348 C75.9312292,64.7364722 76.0774706,64.980797 76.2687773,65.1871255 C76.460084,65.3930122 76.6889452,65.5564844 76.9553608,65.6762168 C77.2213346,65.796391 77.5235373,65.8560363 77.8610855,65.8560363 C78.18317,65.8560363 78.480071,65.7999255 78.7500211,65.6872622 C79.0199712,65.5750407 79.2488324,65.4173121 79.4361628,65.2145181 C79.6234931,65.0126078 79.7697345,64.7722594 79.8753288,64.4943566 C79.9800394,64.2168955 80.0330574,63.9138091 80.0330574,63.5833301 C80.0330574,63.2608037 79.9782721,62.9572755 79.8695852,62.6718618 C79.7604564,62.3868899 79.6106804,62.1394724 79.4193737,61.9296094 C79.228067,61.7193045 78.9992058,61.554065 78.7332321,61.4343326 C78.4668165,61.3141584 78.1761009,61.2540713 77.8610855,61.2540713 C77.5235373,61.2540713 77.2213346,61.3123911 76.9553608,61.428589 C76.6889452,61.5452287 76.460084,61.7082591 76.2687773,61.9176803 C76.0774706,62.1279852 75.9312292,62.3736354 75.8300531,62.6550727 C75.728877,62.9365101 75.6780681,63.2387129 75.6780681,63.5607974 L75.6780681,63.5607974 Z M80.0441028,58.4299776 C80.0441028,58.3173143 80.0759137,58.2258582 80.1395353,58.1542838 C80.2031569,58.0831513 80.3065421,58.0473641 80.449249,58.0473641 C80.5164051,58.0473641 80.5822358,58.0570841 80.6458575,58.0751986 C80.7094791,58.0941967 80.7567535,58.1109858 80.7867971,58.1260076 L80.7867971,63.2912891 C80.7867971,63.4711086 80.7810535,63.6301627 80.7695662,63.769335 C80.7585208,63.9080655 80.7452663,64.030007 80.7302445,64.1347176 C80.6626465,64.5023093 80.5464487,64.8323465 80.381651,65.1248293 C80.2164114,65.4173121 80.0100829,65.6651714 79.7626655,65.8675235 C79.515248,66.0703175 79.2298343,66.2253952 78.9073079,66.334524 C78.5847816,66.443211 78.236188,66.4975544 77.8610855,66.4975544 C77.4183849,66.4975544 77.0150061,66.4206783 76.6513908,66.266926 C76.2873336,66.1131737 75.9745272,65.9033107 75.712088,65.6368951 C75.4492069,65.3709213 75.2450875,65.0594404 75.0984043,64.7028941 C74.9521629,64.3467897 74.8792631,63.9659435 74.8792631,63.5607974 C74.8792631,63.1481404 74.9521629,62.7637597 75.0984043,62.4076553 C75.2450875,62.051109 75.4492069,61.7400699 75.712088,61.4732125 C75.9745272,61.2076805 76.2873336,60.9991429 76.6513908,60.8489252 C77.0150061,60.6987074 77.4183849,60.6240404 77.8610855,60.6240404 C78.3559204,60.6240404 78.7871337,60.7216819 79.1551672,60.916965 C79.5223171,61.1118063 79.8187762,61.3782219 80.0441028,61.7153282 L80.0441028,58.4299776 Z" id="Fill-25"></path>
                <path d="M89.9008615,63.5607974 C89.9008615,63.2387129 89.8500525,62.9365101 89.7488764,62.6550727 C89.6477004,62.3736354 89.5010172,62.1279852 89.3101522,61.9176803 C89.1188455,61.7082591 88.8899844,61.5452287 88.6235688,61.428589 C88.3571532,61.3123911 88.0553922,61.2540713 87.7178441,61.2540713 C87.3878069,61.2540713 87.0891386,61.3123911 86.8231648,61.428589 C86.5567492,61.5452287 86.3283299,61.7082591 86.1370232,61.9176803 C85.9457164,62.1279852 85.7977078,62.3736354 85.6921135,62.6550727 C85.5869611,62.9365101 85.5348267,63.2387129 85.5348267,63.5607974 C85.5348267,63.8908347 85.5869611,64.196572 85.6921135,64.4780093 C85.7977078,64.7594467 85.9457164,65.0011206 86.1370232,65.2039145 C86.3283299,65.4062667 86.5567492,65.5657626 86.8231648,65.6819604 C87.0891386,65.7981583 87.3878069,65.8560363 87.7178441,65.8560363 C88.0553922,65.8560363 88.3571532,65.796391 88.6235688,65.6762168 C88.8899844,65.5564844 89.1188455,65.3930122 89.3101522,65.1871255 C89.5010172,64.980797 89.6477004,64.7364722 89.7488764,64.4550348 C89.8500525,64.1740393 89.9008615,63.8758129 89.9008615,63.5607974 L89.9008615,63.5607974 Z M84.7921325,58.4299776 C84.7921325,58.3173143 84.8239433,58.2258582 84.8880068,58.1542838 C84.9516284,58.0831513 85.0545717,58.0473641 85.1972786,58.0473641 C85.2648766,58.0473641 85.3302655,58.0570841 85.3943289,58.0751986 C85.4579506,58.0941967 85.5047832,58.1109858 85.5348267,58.1260076 L85.5348267,61.7493481 C85.7747333,61.4117999 86.0862142,61.1400825 86.4688277,60.933754 C86.8514411,60.7269837 87.2676327,60.6240404 87.7178441,60.6240404 C88.1525919,60.6240404 88.5542035,60.6987074 88.9217952,60.8489252 C89.288945,60.9991429 89.6044023,61.2076805 89.8668416,61.4732125 C90.1292808,61.7400699 90.333842,62.051109 90.4805253,62.4076553 C90.6263248,62.7637597 90.6996664,63.1481404 90.6996664,63.5607974 C90.6996664,63.9659435 90.6263248,64.3467897 90.4805253,64.7028941 C90.333842,65.0594404 90.1292808,65.3709213 89.8668416,65.6368951 C89.6044023,65.9033107 89.288945,66.1131737 88.9217952,66.266926 C88.5542035,66.4206783 88.1525919,66.4975544 87.7178441,66.4975544 C87.3427415,66.4975544 86.9937062,66.443211 86.6711798,66.334524 C86.3486535,66.2253952 86.0636816,66.0703175 85.8162641,65.8675235 C85.5688466,65.6651714 85.3620763,65.4173121 85.1972786,65.1248293 C85.0320391,64.8323465 84.9158412,64.5023093 84.8486851,64.1347176 C84.8332215,64.030007 84.8204088,63.9080655 84.8093633,63.769335 C84.7978761,63.6301627 84.7921325,63.4711086 84.7921325,63.2912891 L84.7921325,58.4299776 Z" id="Fill-27"></path>
                <path d="M97.1018586,65.9347239 C97.1018586,66.4224897 97.0347024,66.8408904 96.8995065,67.1894839 C96.7643105,67.5385193 96.5730038,67.8252585 96.3255863,68.0501433 C96.0781688,68.2754699 95.7799424,68.4402676 95.430907,68.54542 C95.0818717,68.6501306 94.6899801,68.7031487 94.2552322,68.7031487 C93.6923575,68.7031487 93.2257988,68.6558742 92.8542308,68.5622091 C92.4826628,68.4685439 92.2219908,68.3921096 92.0722149,68.3320225 L92.2860543,67.7470569 C92.4358302,67.8067021 92.6757368,67.8760674 93.0062158,67.9547108 C93.3362531,68.033796 93.7489101,68.0731177 94.243745,68.0731177 C94.521206,68.0731177 94.7893889,68.0426324 95.0482936,67.9829871 C95.3071983,67.9229 95.5338504,67.8181894 95.7291335,67.6679716 C95.9239747,67.5177539 96.0794943,67.3114254 96.1961339,67.0485443 C96.3123318,66.7865469 96.3702098,66.4565097 96.3702098,66.0588744 L96.3702098,65.541065 C96.2279448,65.8264787 95.9827364,66.0571072 95.633701,66.2333921 C95.2846656,66.4092352 94.8742177,66.4975986 94.4014736,66.4975986 C93.5836705,66.4975986 92.9571741,66.2837592 92.5224263,65.8560805 C92.0872366,65.4284017 91.8694209,64.8474125 91.8694209,64.1122291 L91.8694209,61.1639848 C91.8694209,61.0513215 91.9016735,60.9598654 91.9652952,60.8887329 C92.0289168,60.8176004 92.132302,60.7818132 92.2750088,60.7818132 C92.342165,60.7818132 92.4075539,60.7910914 92.4720592,60.8096477 C92.535239,60.828204 92.5825134,60.8454348 92.612557,60.8604566 L92.612557,63.9549423 C92.612557,64.5549297 92.7587984,65.0223719 93.0512811,65.3555019 C93.3437639,65.6890737 93.8050208,65.8560805 94.4350517,65.8560805 C95.0876153,65.8560805 95.5714048,65.676261 95.8868621,65.3161802 C96.2018776,64.9560994 96.3596062,64.464799 96.3596062,63.842279 L96.3596062,61.1639848 C96.3596062,61.0513215 96.3909752,60.9598654 96.4550387,60.8887329 C96.5186603,60.8176004 96.6220454,60.7818132 96.7643105,60.7818132 C96.8319085,60.7818132 96.8972974,60.7910914 96.9613608,60.8096477 C97.0249825,60.828204 97.0718151,60.8454348 97.1018586,60.8604566 L97.1018586,65.9347239 Z" id="Fill-29"></path>
                <path d="M106.362341,58.6214169 C106.467052,58.6214169 106.555415,58.6488095 106.626989,58.7053621 C106.69768,58.7619146 106.733467,58.850278 106.733467,58.9700104 C106.733467,59.0526302 106.720655,59.1242045 106.694146,59.183408 C106.668078,59.2439369 106.647313,59.2850259 106.632291,59.3080003 L103.470649,59.3080003 L103.470649,66.3404002 L102.68289,66.3404002 L102.68289,59.3080003 L99.9820631,59.3080003 C99.8769107,59.3080003 99.7889891,59.2792822 99.7178566,59.2227297 C99.6462822,59.1666189 99.6109369,59.0786974 99.6109369,58.958965 C99.6109369,58.8763452 99.6241914,58.8052127 99.6502586,58.7446838 C99.6763258,58.6850385 99.6970912,58.6435077 99.7121129,58.6214169 L106.362341,58.6214169 Z" id="Fill-31"></path>
                <path d="M107.194857,63.4594004 C107.397209,63.474864 107.594259,63.4841422 107.785566,63.4872349 C107.976873,63.4912113 108.177458,63.4929785 108.387321,63.4929785 C108.897619,63.4929785 109.317787,63.4616095 109.647824,63.3975461 C109.97742,63.3343662 110.238533,63.2495374 110.42984,63.144385 C110.621147,63.0396744 110.754134,62.9159656 110.829243,62.7728169 C110.904352,62.6305519 110.941906,62.4803342 110.941906,62.3234891 C110.941906,62.1131843 110.898608,61.9368993 110.812454,61.7941925 C110.725858,61.6519274 110.60966,61.5374969 110.463418,61.4509007 C110.317177,61.3651883 110.152379,61.3028921 109.968583,61.2653376 C109.784787,61.2277832 109.595248,61.2092269 109.399965,61.2092269 C109.047395,61.2092269 108.736356,61.2710813 108.465964,61.39479 C108.196014,61.5180569 107.969362,61.6855055 107.785566,61.8958104 C107.601328,62.1061152 107.459063,62.34558 107.357887,62.6159719 C107.256711,62.8854803 107.202368,63.1669176 107.194857,63.4594004 M107.217389,64.0448078 C107.299567,64.6227044 107.539916,65.0684976 107.937551,65.3835131 C108.335186,65.6985286 108.860065,65.8562572 109.512628,65.8562572 C109.895242,65.8562572 110.219535,65.8023555 110.485951,65.6932268 C110.752367,65.5845398 110.956486,65.4891073 111.099193,65.4060458 L111.425696,65.9463878 C111.365608,65.9839423 111.275478,66.0343094 111.155304,66.0983729 C111.035129,66.1619945 110.888888,66.2238489 110.717021,66.283936 C110.543829,66.3435812 110.348988,66.3943902 110.131614,66.4354792 C109.913798,66.47701 109.673891,66.4977754 109.411452,66.4977754 C108.998795,66.4977754 108.61088,66.4354792 108.246823,66.3122122 C107.883207,66.1880617 107.564216,66.0064749 107.290289,65.7665684 C107.016805,65.52622 106.800756,65.2302026 106.643469,64.8771909 C106.486182,64.524621 106.407097,64.1159404 106.407097,63.651149 C106.407097,63.2004957 106.482206,62.7900478 106.632424,62.4189216 C106.7822,62.0473536 106.992063,61.7288036 107.262455,61.462388 C107.532405,61.1959724 107.853164,60.9896439 108.224732,60.8434025 C108.595858,60.6971611 109.00233,60.6238195 109.44503,60.6238195 C109.820133,60.6238195 110.148403,60.6675594 110.42984,60.7532718 C110.711278,60.8394261 110.945441,60.9618094 111.133213,61.1190962 C111.320543,61.2768249 111.461041,61.462388 111.555148,61.6762274 C111.648813,61.8900668 111.695646,62.1206952 111.695646,62.3681127 C111.695646,62.6159719 111.644837,62.842624 111.543661,63.0489525 C111.442485,63.255281 111.269734,63.4351005 111.026293,63.5888528 C110.78241,63.7430469 110.455907,63.8627793 110.047227,63.9489336 C109.638104,64.0355297 109.122504,64.0783859 108.499984,64.0783859 C108.260077,64.0783859 108.040494,64.0766187 107.841677,64.0730841 C107.642859,64.0691078 107.434763,64.0598296 107.217389,64.0448078" id="Fill-33"></path>
                <path d="M112.786933,58.429845 C112.786933,58.3171817 112.818744,58.2257256 112.882808,58.1541513 C112.946429,58.0830188 113.049373,58.0476734 113.19208,58.0476734 C113.259678,58.0476734 113.325508,58.0569516 113.38913,58.0750661 C113.452752,58.0940642 113.499584,58.1108532 113.529628,58.1263168 L113.529628,66.3401351 L112.786933,66.3401351 L112.786933,58.429845 Z" id="Fill-35"></path>
                <path d="M119.155503,61.0294074 C119.365808,61.1491398 119.470961,61.2878703 119.470961,61.4451571 C119.470961,61.5507514 119.442684,61.6369057 119.386574,61.7040618 C119.330021,61.7716598 119.272143,61.8246779 119.211614,61.8617905 C119.181571,61.8317469 119.116182,61.7831471 119.015006,61.7155491 C118.913829,61.6479511 118.774657,61.5785858 118.598814,61.5074533 C118.422087,61.4363208 118.210457,61.3740246 117.963039,61.3218902 C117.71518,61.269314 117.430208,61.242805 117.107682,61.242805 C116.582803,61.242805 116.16617,61.3161466 115.858666,61.462388 C115.551161,61.6090712 115.397409,61.8503032 115.397409,62.1882932 C115.397409,62.4578015 115.500794,62.6645718 115.70668,62.8068369 C115.913451,62.9495437 116.203725,63.0436507 116.578827,63.0882742 L117.861422,63.2345156 C118.229455,63.279581 118.538727,63.3489462 118.790121,63.4426114 C119.041073,63.5367184 119.243867,63.651149 119.397619,63.7859031 C119.551371,63.9206573 119.661826,64.0730841 119.729865,64.2418582 C119.797021,64.4101904 119.8306,64.5957535 119.8306,64.7985475 C119.8306,65.0464068 119.778023,65.2730589 119.673313,65.4793874 C119.56816,65.6857159 119.410432,65.8633263 119.20101,66.013544 C118.990264,66.1642036 118.729592,66.2821687 118.418553,66.368323 C118.107514,66.4544773 117.745224,66.4977754 117.332567,66.4977754 C116.957464,66.4977754 116.612405,66.4677318 116.29739,66.4076447 C115.982816,66.3475576 115.70668,66.2821687 115.470308,66.2110362 C115.234378,66.1394618 115.044839,66.0683293 114.902574,65.996755 C114.759867,65.9256224 114.673713,65.8792317 114.643669,65.8562572 L114.958684,65.282337 C115.00375,65.3053115 115.091671,65.3481677 115.222891,65.4117894 C115.354111,65.475411 115.521117,65.5412417 115.723911,65.6083979 C115.926264,65.6764377 116.162636,65.7365248 116.432586,65.7882174 C116.702978,65.8416772 116.998995,65.8673026 117.321521,65.8673026 C117.561428,65.8673026 117.786313,65.8505136 117.996618,65.8169355 C118.206481,65.7833574 118.390276,65.7268048 118.548005,65.6477196 C118.705734,65.5690762 118.829442,65.4701092 118.919131,65.349935 C119.009704,65.2302026 119.054327,65.0799849 119.054327,64.9001654 C119.054327,64.6227044 118.96022,64.4031214 118.77289,64.2418582 C118.58556,64.080595 118.229455,63.969699 117.704135,63.9100537 L116.522716,63.7744159 C115.915218,63.7072597 115.451752,63.5420202 115.133202,63.279581 C114.81421,63.0171417 114.654714,62.6645718 114.654714,62.2218713 C114.654714,62.0190773 114.695803,61.8224688 114.778865,61.6307202 C114.861043,61.4398553 114.998006,61.269314 115.189313,61.1190962 C115.38062,60.9688785 115.633781,60.8491461 115.948796,60.7590155 C116.263812,60.6693266 116.653936,60.6238195 117.119169,60.6238195 C117.614004,60.6238195 118.036381,60.6693266 118.384975,60.7590155 C118.733568,60.8491461 118.990264,60.9392768 119.155503,61.0294074" id="Fill-37"></path>
                <path d="M121.552183,61.4569978 L121.552183,64.7198157 C121.552183,65.1399836 121.66087,65.4364428 121.878686,65.6083095 C122.09606,65.7815018 122.38059,65.8672143 122.733602,65.8672143 C122.958928,65.8672143 123.16835,65.8296598 123.363633,65.7549928 C123.558474,65.6803257 123.708692,65.6083095 123.813844,65.5411534 L124.140347,66.0253847 C124.095282,66.0629391 124.025916,66.1075627 123.931809,66.1605807 C123.838144,66.2127151 123.725481,66.2652913 123.594261,66.3174257 C123.463042,66.3700019 123.309289,66.4133 123.133004,66.4473199 C122.956719,66.4808979 122.763645,66.497687 122.553782,66.497687 C122.253789,66.497687 121.994442,66.4561562 121.777068,66.3739783 C121.559694,66.2913585 121.379433,66.1769279 121.237168,66.0306865 C121.094461,65.8844451 120.987541,65.7099274 120.916409,65.5075753 C120.844834,65.3052231 120.809489,65.0838729 120.809489,64.8435245 L120.809489,59.6565939 C120.809489,59.5439306 120.8413,59.4524745 120.904922,59.3809001 C120.968985,59.3097676 121.071928,59.2739804 121.214635,59.2739804 C121.281791,59.2739804 121.348064,59.2832586 121.411686,59.3018149 C121.474865,59.320813 121.52214,59.3376021 121.552183,59.3526239 L121.552183,60.7819016 L123.532849,60.7819016 C123.690135,60.7819016 123.798822,60.8176887 123.858909,60.8888213 C123.918997,60.9599538 123.94904,61.0478754 123.94904,61.1530278 C123.94904,61.2131149 123.941529,61.2692256 123.926507,61.3218018 C123.911486,61.3743781 123.896022,61.4194434 123.881,61.4569978 L121.552183,61.4569978 Z" id="Fill-39"></path>
                <path d="M128.517029,61.1864733 C128.517029,61.2615822 128.496264,61.3291802 128.455175,61.3892673 C128.414086,61.4493544 128.374323,61.4979542 128.33721,61.5355087 C128.209083,61.4754216 128.04782,61.4193108 127.852979,61.3667346 C127.658137,61.3141584 127.429276,61.2876494 127.166837,61.2876494 C126.859332,61.2876494 126.602195,61.3256456 126.395866,61.4003127 C126.189538,61.4754216 126.022973,61.5858758 125.895288,61.7321172 C125.767603,61.8783586 125.677472,62.060829 125.625338,62.2782029 C125.572761,62.4955768 125.546252,62.7429943 125.546252,63.0204553 L125.546252,66.3402676 L124.803558,66.3402676 L124.803558,62.6718618 C124.803558,62.0192982 124.998841,61.5147433 125.388966,61.1586389 C125.778648,60.8020926 126.349034,60.6240404 127.099239,60.6240404 C127.504385,60.6240404 127.841933,60.6691057 128.111883,60.7587945 C128.381833,60.8489252 128.517029,60.9920739 128.517029,61.1864733" id="Fill-41"></path>
                <path d="M133.243277,63.6734165 C133.175679,63.6583948 132.997627,63.6283512 132.708679,63.5832859 C132.419731,63.5382206 131.994261,63.5161297 131.431386,63.5161297 C131.153925,63.5161297 130.902531,63.534686 130.677647,63.5722405 C130.452762,63.6093531 130.259246,63.6751838 130.098425,63.7692908 C129.93672,63.862956 129.813011,63.988432 129.726857,64.1457188 C129.640702,64.3034475 129.597846,64.4982887 129.597846,64.7315681 C129.597846,65.1362723 129.7569,65.4340569 130.075892,65.6258055 C130.394442,65.8171122 130.925064,65.9125447 131.667758,65.9125447 C132.155524,65.9125447 132.51914,65.8917793 132.759488,65.8506903 C132.999395,65.8096013 133.160658,65.7777905 133.243277,65.754816 L133.243277,63.6734165 Z M131.172923,61.2429817 C130.752314,61.2429817 130.411231,61.2955579 130.148792,61.4002685 C129.886353,61.5058628 129.706091,61.6030625 129.60845,61.6931931 C129.556315,61.6556387 129.509041,61.6030625 129.467952,61.5354645 C129.426863,61.4683083 129.406539,61.3931995 129.406539,61.3101379 C129.406539,61.2279599 129.426863,61.1568274 129.467952,61.0967403 C129.509041,61.0366532 129.55985,60.984077 129.619937,60.9394535 C129.695046,60.8793664 129.860285,60.8113266 130.115214,60.7366595 C130.370142,60.6615506 130.715201,60.6239962 131.150391,60.6239962 C132.042861,60.6239962 132.736955,60.8082339 133.23179,61.1758255 C133.727067,61.5429754 133.974484,62.1358937 133.974484,62.953255 L133.974484,66.317249 C133.757111,66.3548034 133.443862,66.3941251 133.035182,66.4356559 C132.626059,66.4771867 132.163035,66.4979521 131.645667,66.4979521 C131.045238,66.4979521 130.563216,66.444934 130.199601,66.3402234 C129.835544,66.2355128 129.552781,66.0981078 129.349987,65.9293337 C129.147193,65.7610015 129.012439,65.571462 128.944841,65.3607153 C128.877685,65.1512941 128.843665,64.9414311 128.843665,64.7315681 C128.843665,64.4607343 128.884754,64.2155259 128.967373,63.9941756 C129.049551,63.7732672 129.190491,63.5832859 129.389309,63.4255573 C129.588126,63.2682704 129.856309,63.1445617 130.193857,63.0544311 C130.531405,62.9647422 130.955108,62.9192351 131.465406,62.9192351 C131.630204,62.9192351 131.802954,62.9254205 131.982774,62.9364659 C132.163035,62.9475114 132.333576,62.9589986 132.49484,62.970044 C132.656103,62.9815313 132.802344,62.994344 132.933564,63.0093657 C133.064783,63.0243875 133.168169,63.0358747 133.243277,63.0433856 L133.243277,62.9757876 C133.243277,62.6307286 133.184958,62.3453149 133.06876,62.1204301 C132.952562,61.8959871 132.79881,61.7174931 132.607503,61.5858316 C132.416196,61.4550538 132.196613,61.3649232 131.949196,61.3163233 C131.701778,61.2672816 131.442874,61.2429817 131.172923,61.2429817 L131.172923,61.2429817 Z" id="Fill-43"></path>
            </g>
        </g>
    </g>
</svg>